<svg xmlns="http://www.w3.org/2000/svg" xmlns:xlink="http://www.w3.org/1999/xlink" width="500" zoomAndPan="magnify" viewBox="0 0 375 374.999991" height="500" preserveAspectRatio="xMidYMid meet" version="1.0"><defs><g/><clipPath id="2fcf0af374"><path d="M 170.222656 107.941406 L 182.972656 107.941406 L 182.972656 120.691406 L 170.222656 120.691406 Z M 170.222656 107.941406 " clip-rule="nonzero"/></clipPath><clipPath id="8f8d4d623a"><path d="M 176.488281 95.457031 L 189.238281 95.457031 L 189.238281 108.207031 L 176.488281 108.207031 Z M 176.488281 95.457031 " clip-rule="nonzero"/></clipPath><clipPath id="828408a034"><path d="M 189.015625 95.457031 L 201.765625 95.457031 L 201.765625 108.207031 L 189.015625 108.207031 Z M 189.015625 95.457031 " clip-rule="nonzero"/></clipPath><clipPath id="1ef80113f1"><path d="M 195.28125 107.941406 L 208.03125 107.941406 L 208.03125 120.691406 L 195.28125 120.691406 Z M 195.28125 107.941406 " clip-rule="nonzero"/></clipPath><clipPath id="902c1da99d"><path d="M 163.957031 122.230469 L 176.707031 122.230469 L 176.707031 134.980469 L 163.957031 134.980469 Z M 163.957031 122.230469 " clip-rule="nonzero"/></clipPath><clipPath id="24ee9f43bd"><path d="M 201.546875 122.230469 L 214.296875 122.230469 L 214.296875 134.980469 L 201.546875 134.980469 Z M 201.546875 122.230469 " clip-rule="nonzero"/></clipPath><clipPath id="9c6988c7b4"><path d="M 207.8125 134.714844 L 220.5625 134.714844 L 220.5625 147.464844 L 207.8125 147.464844 Z M 207.8125 134.714844 " clip-rule="nonzero"/></clipPath><clipPath id="f672060cd7"><path d="M 176.488281 122.230469 L 189.238281 122.230469 L 189.238281 134.980469 L 176.488281 134.980469 Z M 176.488281 122.230469 " clip-rule="nonzero"/></clipPath><clipPath id="8bf8d8883c"><path d="M 189.015625 122.230469 L 201.765625 122.230469 L 201.765625 134.980469 L 189.015625 134.980469 Z M 189.015625 122.230469 " clip-rule="nonzero"/></clipPath><clipPath id="854837cfa5"><path d="M 167.222656 80.273438 L 179.972656 80.273438 L 179.972656 93.023438 L 167.222656 93.023438 Z M 167.222656 80.273438 " clip-rule="nonzero"/></clipPath><clipPath id="b11924b32b"><path d="M 151.425781 122.230469 L 164.175781 122.230469 L 164.175781 134.980469 L 151.425781 134.980469 Z M 151.425781 122.230469 " clip-rule="nonzero"/></clipPath><clipPath id="b32f38250a"><path d="M 214.078125 80.273438 L 226.828125 80.273438 L 226.828125 93.023438 L 214.078125 93.023438 Z M 214.078125 80.273438 " clip-rule="nonzero"/></clipPath><clipPath id="0e306821fe"><path d="M 151.5625 150.199219 L 164.3125 150.199219 L 164.3125 162.949219 L 151.5625 162.949219 Z M 151.5625 150.199219 " clip-rule="nonzero"/></clipPath><clipPath id="976ea4c3b6"><path d="M 182.75 80.273438 L 195.5 80.273438 L 195.5 93.023438 L 182.75 93.023438 Z M 182.75 80.273438 " clip-rule="nonzero"/></clipPath><clipPath id="bf3466e155"><path d="M 151.5625 136.214844 L 164.3125 136.214844 L 164.3125 148.964844 L 151.5625 148.964844 Z M 151.5625 136.214844 " clip-rule="nonzero"/></clipPath><clipPath id="d13d818650"><path d="M 151.410156 94.261719 L 164.160156 94.261719 L 164.160156 107.011719 L 151.410156 107.011719 Z M 151.410156 94.261719 " clip-rule="nonzero"/></clipPath><clipPath id="40cc5b2148"><path d="M 151.5625 108.246094 L 164.3125 108.246094 L 164.3125 120.996094 L 151.5625 120.996094 Z M 151.5625 108.246094 " clip-rule="nonzero"/></clipPath><clipPath id="ea2622dbf0"><path d="M 198.546875 80.273438 L 211.296875 80.273438 L 211.296875 93.023438 L 198.546875 93.023438 Z M 198.546875 80.273438 " clip-rule="nonzero"/></clipPath><clipPath id="9f43433b9d"><path d="M 151.410156 80.273438 L 164.160156 80.273438 L 164.160156 93.023438 L 151.410156 93.023438 Z M 151.410156 80.273438 " clip-rule="nonzero"/></clipPath><clipPath id="9ff0e8c53e"><path d="M 167.222656 150.199219 L 179.972656 150.199219 L 179.972656 162.949219 L 167.222656 162.949219 Z M 167.222656 150.199219 " clip-rule="nonzero"/></clipPath><clipPath id="66be41b067"><path d="M 182.75 150.199219 L 195.5 150.199219 L 195.5 162.949219 L 182.75 162.949219 Z M 182.75 150.199219 " clip-rule="nonzero"/></clipPath><clipPath id="68fe832471"><path d="M 198.28125 150.199219 L 211.03125 150.199219 L 211.03125 162.949219 L 198.28125 162.949219 Z M 198.28125 150.199219 " clip-rule="nonzero"/></clipPath><clipPath id="9d81000869"><path d="M 213.8125 150.199219 L 226.5625 150.199219 L 226.5625 162.949219 L 213.8125 162.949219 Z M 213.8125 150.199219 " clip-rule="nonzero"/></clipPath><clipPath id="60457834ee"><path d="M 135.960938 74.636719 L 240.210938 74.636719 L 240.210938 178.886719 L 135.960938 178.886719 Z M 135.960938 74.636719 " clip-rule="nonzero"/></clipPath></defs><rect x="-37.5" width="450" fill="#ffffff" y="-37.499999" height="449.999989" fill-opacity="1"/><rect x="-37.5" width="450" fill="#ffffff" y="-37.499999" height="449.999989" fill-opacity="1"/><rect x="-37.5" width="450" fill="#1c90b6" y="-37.499999" height="449.999989" fill-opacity="1"/><path fill="#00276c" d="M 181.613281 114.316406 C 181.613281 117.09375 179.367188 119.347656 176.597656 119.347656 C 173.828125 119.347656 171.582031 117.09375 171.582031 114.316406 C 171.582031 111.535156 173.828125 109.28125 176.597656 109.28125 C 179.367188 109.28125 181.613281 111.535156 181.613281 114.316406 " fill-opacity="1" fill-rule="nonzero"/><g clip-path="url(#2fcf0af374)"><path fill="#ffffff" d="M 182.707031 114.316406 C 182.695312 116.613281 181.40625 118.71875 179.378906 119.78125 C 177.324219 120.851562 174.785156 120.597656 172.9375 119.226562 C 171.074219 117.851562 170.175781 115.453125 170.589844 113.1875 C 170.992188 110.953125 172.671875 109.109375 174.824219 108.441406 C 176.671875 107.871094 178.710938 108.253906 180.257812 109.402344 C 181.800781 110.542969 182.699219 112.402344 182.707031 114.316406 C 182.710938 114.476562 182.957031 114.476562 182.957031 114.316406 C 182.945312 112.113281 181.808594 110.066406 179.953125 108.894531 C 178.082031 107.707031 175.660156 107.636719 173.691406 108.636719 C 171.753906 109.621094 170.464844 111.601562 170.261719 113.761719 C 170.058594 115.960938 171.066406 118.121094 172.8125 119.441406 C 174.585938 120.785156 177.015625 121.054688 179.058594 120.203125 C 181.050781 119.367188 182.503906 117.511719 182.867188 115.375 C 182.925781 115.027344 182.953125 114.671875 182.957031 114.316406 C 182.957031 114.15625 182.710938 114.15625 182.707031 114.316406 " fill-opacity="1" fill-rule="nonzero"/></g><path fill="#00276c" d="M 187.878906 101.832031 C 187.878906 104.609375 185.632812 106.863281 182.863281 106.863281 C 180.09375 106.863281 177.847656 104.609375 177.847656 101.832031 C 177.847656 99.050781 180.09375 96.796875 182.863281 96.796875 C 185.632812 96.796875 187.878906 99.050781 187.878906 101.832031 " fill-opacity="1" fill-rule="nonzero"/><g clip-path="url(#8f8d4d623a)"><path fill="#ffffff" d="M 188.972656 101.832031 C 188.960938 104.128906 187.671875 106.234375 185.640625 107.296875 C 183.585938 108.367188 181.050781 108.113281 179.199219 106.742188 C 177.339844 105.367188 176.441406 102.96875 176.855469 100.703125 C 177.257812 98.46875 178.9375 96.625 181.089844 95.957031 C 182.9375 95.386719 184.976562 95.769531 186.523438 96.917969 C 188.066406 98.058594 188.964844 99.917969 188.972656 101.832031 C 188.976562 101.988281 189.222656 101.992188 189.222656 101.832031 C 189.207031 99.628906 188.074219 97.582031 186.21875 96.410156 C 184.34375 95.222656 181.925781 95.152344 179.957031 96.152344 C 178.019531 97.136719 176.730469 99.117188 176.527344 101.277344 C 176.324219 103.476562 177.328125 105.636719 179.074219 106.957031 C 180.851562 108.300781 183.28125 108.570312 185.320312 107.71875 C 187.316406 106.882812 188.769531 105.027344 189.132812 102.890625 C 189.191406 102.542969 189.21875 102.1875 189.21875 101.832031 C 189.222656 101.671875 188.972656 101.671875 188.972656 101.832031 " fill-opacity="1" fill-rule="nonzero"/></g><path fill="#00276c" d="M 200.40625 101.832031 C 200.40625 104.609375 198.164062 106.863281 195.394531 106.863281 C 192.621094 106.863281 190.378906 104.609375 190.378906 101.832031 C 190.378906 99.050781 192.621094 96.796875 195.394531 96.796875 C 198.164062 96.796875 200.40625 99.050781 200.40625 101.832031 " fill-opacity="1" fill-rule="nonzero"/><g clip-path="url(#828408a034)"><path fill="#cccbc9" d="M 201.503906 101.832031 C 201.492188 104.128906 200.203125 106.234375 198.171875 107.296875 C 196.117188 108.367188 193.582031 108.113281 191.730469 106.742188 C 189.871094 105.367188 188.972656 102.96875 189.382812 100.703125 C 189.789062 98.46875 191.46875 96.625 193.617188 95.957031 C 195.46875 95.386719 197.503906 95.769531 199.054688 96.917969 C 200.59375 98.058594 201.492188 99.917969 201.503906 101.832031 C 201.503906 101.988281 201.753906 101.992188 201.75 101.832031 C 201.738281 99.628906 200.605469 97.582031 198.75 96.410156 C 196.875 95.222656 194.453125 95.152344 192.488281 96.152344 C 190.550781 97.136719 189.257812 99.117188 189.058594 101.277344 C 188.855469 103.476562 189.859375 105.636719 191.605469 106.957031 C 193.378906 108.300781 195.8125 108.570312 197.851562 107.71875 C 199.847656 106.882812 201.300781 105.027344 201.664062 102.890625 C 201.722656 102.542969 201.75 102.1875 201.75 101.832031 C 201.75 101.671875 201.503906 101.671875 201.503906 101.832031 " fill-opacity="1" fill-rule="nonzero"/></g><path fill="#00276c" d="M 206.671875 114.316406 C 206.671875 117.09375 204.429688 119.347656 201.65625 119.347656 C 198.886719 119.347656 196.640625 117.09375 196.640625 114.316406 C 196.640625 111.535156 198.886719 109.28125 201.65625 109.28125 C 204.429688 109.28125 206.671875 111.535156 206.671875 114.316406 " fill-opacity="1" fill-rule="nonzero"/><g clip-path="url(#1ef80113f1)"><path fill="#cccbc9" d="M 207.769531 114.316406 C 207.757812 116.613281 206.46875 118.71875 204.4375 119.78125 C 202.382812 120.851562 199.84375 120.597656 197.996094 119.226562 C 196.136719 117.851562 195.238281 115.453125 195.648438 113.1875 C 196.054688 110.953125 197.734375 109.109375 199.882812 108.441406 C 201.734375 107.871094 203.769531 108.253906 205.320312 109.402344 C 206.859375 110.542969 207.757812 112.402344 207.769531 114.316406 C 207.769531 114.476562 208.015625 114.476562 208.015625 114.316406 C 208.003906 112.113281 206.871094 110.066406 205.015625 108.894531 C 203.140625 107.707031 200.71875 107.636719 198.753906 108.636719 C 196.8125 109.621094 195.523438 111.601562 195.324219 113.761719 C 195.117188 115.960938 196.125 118.121094 197.871094 119.441406 C 199.644531 120.785156 202.074219 121.054688 204.117188 120.203125 C 206.113281 119.367188 207.5625 117.511719 207.925781 115.375 C 207.988281 115.027344 208.015625 114.671875 208.015625 114.316406 C 208.015625 114.15625 207.769531 114.15625 207.769531 114.316406 " fill-opacity="1" fill-rule="nonzero"/></g><path fill="#00276c" d="M 175.347656 128.605469 C 175.347656 131.382812 173.101562 133.636719 170.332031 133.636719 C 167.5625 133.636719 165.316406 131.382812 165.316406 128.605469 C 165.316406 125.824219 167.5625 123.570312 170.332031 123.570312 C 173.101562 123.570312 175.347656 125.824219 175.347656 128.605469 " fill-opacity="1" fill-rule="nonzero"/><g clip-path="url(#902c1da99d)"><path fill="#ffffff" d="M 176.445312 128.605469 C 176.429688 130.902344 175.144531 133.007812 173.113281 134.070312 C 171.058594 135.140625 168.519531 134.886719 166.671875 133.515625 C 164.8125 132.140625 163.910156 129.742188 164.324219 127.476562 C 164.730469 125.242188 166.40625 123.398438 168.558594 122.730469 C 170.40625 122.160156 172.445312 122.542969 173.992188 123.691406 C 175.535156 124.832031 176.433594 126.691406 176.445312 128.605469 C 176.445312 128.761719 176.691406 128.765625 176.691406 128.605469 C 176.679688 126.402344 175.542969 124.355469 173.691406 123.183594 C 171.816406 121.996094 169.394531 121.925781 167.425781 122.925781 C 165.488281 123.910156 164.199219 125.890625 163.996094 128.050781 C 163.792969 130.25 164.800781 132.410156 166.546875 133.730469 C 168.320312 135.074219 170.75 135.34375 172.792969 134.492188 C 174.789062 133.65625 176.238281 131.800781 176.601562 129.664062 C 176.660156 129.316406 176.6875 128.960938 176.691406 128.605469 C 176.691406 128.445312 176.445312 128.445312 176.441406 128.605469 " fill-opacity="1" fill-rule="nonzero"/></g><path fill="#00276c" d="M 212.9375 128.605469 C 212.9375 131.382812 210.691406 133.636719 207.921875 133.636719 C 205.152344 133.636719 202.90625 131.382812 202.90625 128.605469 C 202.90625 125.824219 205.152344 123.570312 207.921875 123.570312 C 210.691406 123.570312 212.9375 125.824219 212.9375 128.605469 " fill-opacity="1" fill-rule="nonzero"/><g clip-path="url(#24ee9f43bd)"><path fill="#cccbc9" d="M 214.035156 128.605469 C 214.023438 130.902344 212.734375 133.007812 210.703125 134.070312 C 208.648438 135.140625 206.109375 134.886719 204.261719 133.515625 C 202.402344 132.140625 201.503906 129.742188 201.914062 127.476562 C 202.320312 125.242188 203.996094 123.398438 206.148438 122.730469 C 208 122.160156 210.035156 122.542969 211.585938 123.691406 C 213.125 124.832031 214.023438 126.691406 214.035156 128.605469 C 214.035156 128.761719 214.28125 128.765625 214.28125 128.605469 C 214.269531 126.402344 213.132812 124.355469 211.28125 123.183594 C 209.40625 121.996094 206.984375 121.925781 205.019531 122.925781 C 203.078125 123.910156 201.789062 125.890625 201.589844 128.050781 C 201.382812 130.25 202.390625 132.410156 204.136719 133.730469 C 205.910156 135.074219 208.339844 135.34375 210.382812 134.492188 C 212.378906 133.65625 213.828125 131.800781 214.191406 129.664062 C 214.253906 129.316406 214.277344 128.960938 214.28125 128.605469 C 214.28125 128.445312 214.035156 128.445312 214.035156 128.605469 " fill-opacity="1" fill-rule="nonzero"/></g><path fill="#00276c" d="M 219.203125 141.089844 C 219.203125 143.867188 216.957031 146.121094 214.1875 146.121094 C 211.417969 146.121094 209.171875 143.867188 209.171875 141.089844 C 209.171875 138.308594 211.417969 136.054688 214.1875 136.054688 C 216.957031 136.054688 219.203125 138.308594 219.203125 141.089844 " fill-opacity="1" fill-rule="nonzero"/><g clip-path="url(#9c6988c7b4)"><path fill="#ffffff" d="M 220.300781 141.089844 C 220.289062 143.386719 219 145.492188 216.96875 146.554688 C 214.914062 147.625 212.375 147.371094 210.527344 146 C 208.667969 144.625 207.769531 142.226562 208.179688 139.960938 C 208.585938 137.726562 210.261719 135.882812 212.414062 135.214844 C 214.261719 134.644531 216.300781 135.027344 217.851562 136.175781 C 219.390625 137.316406 220.289062 139.175781 220.300781 141.089844 C 220.300781 141.25 220.546875 141.25 220.546875 141.089844 C 220.535156 138.886719 219.398438 136.839844 217.546875 135.667969 C 215.671875 134.480469 213.25 134.410156 211.285156 135.410156 C 209.34375 136.394531 208.054688 138.375 207.855469 140.535156 C 207.648438 142.734375 208.65625 144.894531 210.402344 146.214844 C 212.175781 147.558594 214.605469 147.828125 216.648438 146.976562 C 218.644531 146.140625 220.09375 144.285156 220.457031 142.148438 C 220.519531 141.800781 220.542969 141.445312 220.546875 141.089844 C 220.546875 140.929688 220.300781 140.929688 220.300781 141.089844 " fill-opacity="1" fill-rule="nonzero"/></g><path fill="#00276c" d="M 187.878906 128.605469 C 187.878906 131.382812 185.632812 133.636719 182.863281 133.636719 C 180.09375 133.636719 177.847656 131.382812 177.847656 128.605469 C 177.847656 125.824219 180.09375 123.570312 182.863281 123.570312 C 185.632812 123.570312 187.878906 125.824219 187.878906 128.605469 " fill-opacity="1" fill-rule="nonzero"/><g clip-path="url(#f672060cd7)"><path fill="#cccbc9" d="M 188.972656 128.605469 C 188.960938 130.902344 187.671875 133.007812 185.640625 134.070312 C 183.585938 135.140625 181.050781 134.886719 179.199219 133.515625 C 177.339844 132.140625 176.441406 129.742188 176.855469 127.476562 C 177.257812 125.242188 178.9375 123.398438 181.089844 122.730469 C 182.9375 122.160156 184.976562 122.542969 186.523438 123.691406 C 188.066406 124.832031 188.964844 126.691406 188.972656 128.605469 C 188.976562 128.761719 189.222656 128.765625 189.222656 128.605469 C 189.207031 126.402344 188.074219 124.355469 186.21875 123.183594 C 184.34375 121.996094 181.925781 121.925781 179.957031 122.925781 C 178.019531 123.910156 176.730469 125.890625 176.527344 128.050781 C 176.324219 130.25 177.328125 132.410156 179.074219 133.730469 C 180.851562 135.074219 183.28125 135.34375 185.320312 134.492188 C 187.316406 133.65625 188.769531 131.800781 189.132812 129.664062 C 189.191406 129.316406 189.21875 128.960938 189.21875 128.605469 C 189.222656 128.445312 188.972656 128.445312 188.972656 128.605469 " fill-opacity="1" fill-rule="nonzero"/></g><path fill="#ffffff" d="M 200.40625 128.605469 C 200.40625 131.382812 198.164062 133.636719 195.394531 133.636719 C 192.621094 133.636719 190.378906 131.382812 190.378906 128.605469 C 190.378906 125.824219 192.621094 123.570312 195.394531 123.570312 C 198.164062 123.570312 200.40625 125.824219 200.40625 128.605469 " fill-opacity="1" fill-rule="nonzero"/><g clip-path="url(#8bf8d8883c)"><path fill="#cccbc9" d="M 201.503906 128.605469 C 201.492188 130.902344 200.203125 133.007812 198.171875 134.070312 C 196.117188 135.140625 193.582031 134.886719 191.730469 133.515625 C 189.871094 132.140625 188.972656 129.742188 189.382812 127.476562 C 189.789062 125.242188 191.46875 123.398438 193.617188 122.730469 C 195.46875 122.160156 197.503906 122.542969 199.054688 123.691406 C 200.59375 124.832031 201.492188 126.691406 201.503906 128.605469 C 201.503906 128.761719 201.753906 128.765625 201.75 128.605469 C 201.738281 126.402344 200.605469 124.355469 198.75 123.183594 C 196.875 121.996094 194.453125 121.925781 192.488281 122.925781 C 190.550781 123.910156 189.257812 125.890625 189.058594 128.050781 C 188.855469 130.25 189.859375 132.410156 191.605469 133.730469 C 193.378906 135.074219 195.8125 135.34375 197.851562 134.492188 C 199.847656 133.65625 201.300781 131.800781 201.664062 129.664062 C 201.722656 129.316406 201.75 128.960938 201.75 128.605469 C 201.75 128.445312 201.503906 128.445312 201.503906 128.605469 " fill-opacity="1" fill-rule="nonzero"/></g><path fill="#ffffff" d="M 178.613281 86.648438 C 178.613281 89.429688 176.367188 91.683594 173.597656 91.683594 C 170.828125 91.683594 168.582031 89.429688 168.582031 86.648438 C 168.582031 83.871094 170.828125 81.617188 173.597656 81.617188 C 176.367188 81.617188 178.613281 83.871094 178.613281 86.648438 " fill-opacity="1" fill-rule="nonzero"/><g clip-path="url(#854837cfa5)"><path fill="#ffffff" d="M 179.707031 86.648438 C 179.695312 88.949219 178.40625 91.054688 176.378906 92.113281 C 174.324219 93.1875 171.785156 92.933594 169.9375 91.5625 C 168.074219 90.1875 167.175781 87.789062 167.589844 85.519531 C 167.992188 83.289062 169.671875 81.441406 171.824219 80.777344 C 173.671875 80.207031 175.710938 80.589844 177.257812 81.738281 C 178.800781 82.878906 179.699219 84.738281 179.707031 86.648438 C 179.710938 86.808594 179.957031 86.808594 179.957031 86.648438 C 179.945312 84.449219 178.808594 82.402344 176.953125 81.230469 C 175.082031 80.042969 172.660156 79.972656 170.691406 80.972656 C 168.753906 81.957031 167.464844 83.9375 167.261719 86.09375 C 167.058594 88.296875 168.066406 90.457031 169.8125 91.777344 C 171.585938 93.121094 174.015625 93.390625 176.058594 92.535156 C 178.050781 91.703125 179.503906 89.84375 179.867188 87.710938 C 179.925781 87.359375 179.953125 87.003906 179.957031 86.648438 C 179.957031 86.488281 179.710938 86.488281 179.707031 86.648438 " fill-opacity="1" fill-rule="nonzero"/></g><path fill="#ffffff" d="M 162.816406 128.605469 C 162.816406 131.382812 160.570312 133.636719 157.800781 133.636719 C 155.03125 133.636719 152.785156 131.382812 152.785156 128.605469 C 152.785156 125.824219 155.03125 123.570312 157.800781 123.570312 C 160.570312 123.570312 162.816406 125.824219 162.816406 128.605469 " fill-opacity="1" fill-rule="nonzero"/><g clip-path="url(#b11924b32b)"><path fill="#cccbc9" d="M 163.914062 128.605469 C 163.902344 130.902344 162.613281 133.007812 160.582031 134.070312 C 158.527344 135.140625 155.988281 134.886719 154.140625 133.515625 C 152.28125 132.140625 151.382812 129.742188 151.792969 127.476562 C 152.199219 125.242188 153.875 123.398438 156.027344 122.730469 C 157.878906 122.160156 159.914062 122.542969 161.464844 123.691406 C 163.003906 124.832031 163.902344 126.691406 163.914062 128.605469 C 163.914062 128.761719 164.160156 128.765625 164.160156 128.605469 C 164.148438 126.402344 163.011719 124.355469 161.160156 123.183594 C 159.285156 121.996094 156.863281 121.925781 154.898438 122.925781 C 152.957031 123.910156 151.667969 125.890625 151.46875 128.050781 C 151.261719 130.25 152.269531 132.410156 154.015625 133.730469 C 155.789062 135.074219 158.21875 135.34375 160.261719 134.492188 C 162.257812 133.65625 163.707031 131.800781 164.070312 129.664062 C 164.132812 129.316406 164.15625 128.960938 164.160156 128.605469 C 164.160156 128.445312 163.914062 128.445312 163.914062 128.605469 " fill-opacity="1" fill-rule="nonzero"/></g><path fill="#ffffff" d="M 225.46875 86.648438 C 225.46875 89.429688 223.222656 91.683594 220.453125 91.683594 C 217.683594 91.683594 215.4375 89.429688 215.4375 86.648438 C 215.4375 83.871094 217.683594 81.617188 220.453125 81.617188 C 223.222656 81.617188 225.46875 83.871094 225.46875 86.648438 " fill-opacity="1" fill-rule="nonzero"/><g clip-path="url(#b32f38250a)"><path fill="#ffffff" d="M 226.566406 86.648438 C 226.550781 88.949219 225.265625 91.054688 223.234375 92.113281 C 221.179688 93.1875 218.640625 92.933594 216.792969 91.5625 C 214.933594 90.1875 214.03125 87.789062 214.445312 85.519531 C 214.851562 83.289062 216.527344 81.441406 218.679688 80.777344 C 220.527344 80.207031 222.566406 80.589844 224.113281 81.738281 C 225.65625 82.878906 226.554688 84.738281 226.566406 86.648438 C 226.566406 86.808594 226.8125 86.808594 226.8125 86.648438 C 226.800781 84.449219 225.664062 82.402344 223.8125 81.230469 C 221.9375 80.042969 219.515625 79.972656 217.546875 80.972656 C 215.609375 81.957031 214.320312 83.9375 214.117188 86.09375 C 213.914062 88.296875 214.921875 90.457031 216.667969 91.777344 C 218.441406 93.121094 220.871094 93.390625 222.914062 92.535156 C 224.910156 91.703125 226.359375 89.84375 226.722656 87.710938 C 226.78125 87.359375 226.808594 87.003906 226.8125 86.648438 C 226.8125 86.488281 226.566406 86.488281 226.5625 86.648438 " fill-opacity="1" fill-rule="nonzero"/></g><path fill="#ffffff" d="M 162.957031 156.574219 C 162.957031 159.355469 160.710938 161.605469 157.941406 161.605469 C 155.171875 161.605469 152.925781 159.355469 152.925781 156.574219 C 152.925781 153.792969 155.171875 151.539062 157.941406 151.539062 C 160.710938 151.539062 162.957031 153.792969 162.957031 156.574219 " fill-opacity="1" fill-rule="nonzero"/><g clip-path="url(#0e306821fe)"><path fill="#cccbc9" d="M 164.050781 156.574219 C 164.039062 158.871094 162.75 160.980469 160.71875 162.039062 C 158.664062 163.109375 156.128906 162.855469 154.277344 161.484375 C 152.417969 160.109375 151.519531 157.714844 151.933594 155.445312 C 152.335938 153.210938 154.015625 151.367188 156.167969 150.699219 C 158.015625 150.128906 160.054688 150.511719 161.601562 151.660156 C 163.144531 152.800781 164.042969 154.660156 164.050781 156.574219 C 164.054688 156.734375 164.300781 156.734375 164.300781 156.574219 C 164.285156 154.371094 163.152344 152.328125 161.296875 151.152344 C 159.421875 149.964844 157.003906 149.894531 155.035156 150.894531 C 153.097656 151.878906 151.804688 153.859375 151.605469 156.019531 C 151.402344 158.21875 152.40625 160.378906 154.152344 161.699219 C 155.929688 163.042969 158.359375 163.3125 160.398438 162.460938 C 162.394531 161.625 163.847656 159.769531 164.210938 157.636719 C 164.269531 157.285156 164.296875 156.929688 164.296875 156.574219 C 164.300781 156.414062 164.050781 156.414062 164.050781 156.574219 " fill-opacity="1" fill-rule="nonzero"/></g><path fill="#00276c" d="M 194.144531 86.648438 C 194.144531 89.429688 191.898438 91.683594 189.128906 91.683594 C 186.355469 91.683594 184.113281 89.429688 184.113281 86.648438 C 184.113281 83.871094 186.355469 81.617188 189.128906 81.617188 C 191.898438 81.617188 194.144531 83.871094 194.144531 86.648438 " fill-opacity="1" fill-rule="nonzero"/><g clip-path="url(#976ea4c3b6)"><path fill="#ffffff" d="M 195.238281 86.648438 C 195.226562 88.949219 193.9375 91.054688 191.90625 92.113281 C 189.851562 93.1875 187.316406 92.933594 185.464844 91.5625 C 183.605469 90.1875 182.707031 87.789062 183.117188 85.519531 C 183.523438 83.289062 185.203125 81.441406 187.355469 80.777344 C 189.203125 80.207031 191.242188 80.589844 192.789062 81.738281 C 194.332031 82.878906 195.230469 84.738281 195.238281 86.648438 C 195.238281 86.808594 195.488281 86.808594 195.484375 86.648438 C 195.472656 84.449219 194.339844 82.402344 192.484375 81.230469 C 190.609375 80.042969 188.1875 79.972656 186.222656 80.972656 C 184.285156 81.957031 182.992188 83.9375 182.792969 86.09375 C 182.589844 88.296875 183.59375 90.457031 185.339844 91.777344 C 187.113281 93.121094 189.546875 93.390625 191.585938 92.535156 C 193.582031 91.703125 195.035156 89.84375 195.398438 87.710938 C 195.457031 87.359375 195.484375 87.003906 195.484375 86.648438 C 195.488281 86.488281 195.238281 86.488281 195.238281 86.648438 " fill-opacity="1" fill-rule="nonzero"/></g><path fill="#00276c" d="M 162.957031 142.589844 C 162.957031 145.367188 160.710938 147.621094 157.941406 147.621094 C 155.171875 147.621094 152.925781 145.367188 152.925781 142.589844 C 152.925781 139.808594 155.171875 137.554688 157.941406 137.554688 C 160.710938 137.554688 162.957031 139.808594 162.957031 142.589844 " fill-opacity="1" fill-rule="nonzero"/><g clip-path="url(#bf3466e155)"><path fill="#ffffff" d="M 164.050781 142.589844 C 164.039062 144.886719 162.75 146.992188 160.71875 148.054688 C 158.664062 149.125 156.128906 148.871094 154.277344 147.5 C 152.417969 146.125 151.519531 143.726562 151.933594 141.460938 C 152.335938 139.226562 154.015625 137.382812 156.167969 136.714844 C 158.015625 136.144531 160.054688 136.527344 161.601562 137.675781 C 163.144531 138.816406 164.042969 140.675781 164.050781 142.589844 C 164.054688 142.75 164.300781 142.75 164.300781 142.589844 C 164.285156 140.386719 163.152344 138.339844 161.296875 137.167969 C 159.421875 135.980469 157.003906 135.910156 155.035156 136.910156 C 153.097656 137.894531 151.804688 139.875 151.605469 142.035156 C 151.402344 144.234375 152.40625 146.394531 154.152344 147.714844 C 155.929688 149.058594 158.359375 149.328125 160.398438 148.476562 C 162.394531 147.640625 163.847656 145.785156 164.210938 143.648438 C 164.269531 143.300781 164.296875 142.945312 164.296875 142.589844 C 164.300781 142.429688 164.050781 142.429688 164.050781 142.589844 " fill-opacity="1" fill-rule="nonzero"/></g><path fill="#ffffff" d="M 162.804688 100.632812 C 162.804688 103.414062 160.558594 105.667969 157.789062 105.667969 C 155.015625 105.667969 152.773438 103.414062 152.773438 100.632812 C 152.773438 97.855469 155.015625 95.601562 157.789062 95.601562 C 160.558594 95.601562 162.804688 97.855469 162.804688 100.632812 " fill-opacity="1" fill-rule="nonzero"/><g clip-path="url(#d13d818650)"><path fill="#cccbc9" d="M 163.898438 100.632812 C 163.886719 102.933594 162.597656 105.039062 160.566406 106.097656 C 158.511719 107.171875 155.976562 106.917969 154.125 105.546875 C 152.265625 104.171875 151.367188 101.773438 151.777344 99.503906 C 152.183594 97.273438 153.863281 95.425781 156.015625 94.761719 C 157.863281 94.191406 159.898438 94.574219 161.449219 95.722656 C 162.992188 96.863281 163.886719 98.722656 163.898438 100.632812 C 163.898438 100.792969 164.148438 100.792969 164.144531 100.632812 C 164.132812 98.433594 163 96.386719 161.144531 95.214844 C 159.269531 94.027344 156.847656 93.957031 154.882812 94.957031 C 152.945312 95.941406 151.652344 97.921875 151.453125 100.078125 C 151.25 102.28125 152.253906 104.441406 154 105.761719 C 155.773438 107.105469 158.207031 107.375 160.246094 106.519531 C 162.242188 105.6875 163.695312 103.832031 164.058594 101.695312 C 164.117188 101.34375 164.144531 100.988281 164.144531 100.632812 C 164.148438 100.472656 163.898438 100.476562 163.898438 100.632812 " fill-opacity="1" fill-rule="nonzero"/></g><path fill="#ffffff" d="M 162.957031 114.617188 C 162.957031 117.398438 160.710938 119.652344 157.941406 119.652344 C 155.171875 119.652344 152.925781 117.398438 152.925781 114.617188 C 152.925781 111.839844 155.171875 109.585938 157.941406 109.585938 C 160.710938 109.585938 162.957031 111.839844 162.957031 114.617188 " fill-opacity="1" fill-rule="nonzero"/><g clip-path="url(#40cc5b2148)"><path fill="#cccbc9" d="M 164.050781 114.617188 C 164.039062 116.917969 162.75 119.023438 160.71875 120.082031 C 158.664062 121.15625 156.128906 120.902344 154.277344 119.53125 C 152.417969 118.15625 151.519531 115.757812 151.933594 113.488281 C 152.335938 111.257812 154.015625 109.414062 156.167969 108.746094 C 158.015625 108.175781 160.054688 108.558594 161.601562 109.707031 C 163.144531 110.847656 164.042969 112.707031 164.050781 114.617188 C 164.054688 114.777344 164.300781 114.777344 164.300781 114.617188 C 164.285156 112.417969 163.152344 110.371094 161.296875 109.199219 C 159.421875 108.011719 157.003906 107.941406 155.035156 108.941406 C 153.097656 109.925781 151.804688 111.90625 151.605469 114.066406 C 151.402344 116.265625 152.40625 118.425781 154.152344 119.746094 C 155.929688 121.089844 158.359375 121.359375 160.398438 120.503906 C 162.394531 119.671875 163.847656 117.816406 164.210938 115.679688 C 164.269531 115.328125 164.296875 114.972656 164.296875 114.621094 C 164.300781 114.457031 164.050781 114.460938 164.050781 114.621094 " fill-opacity="1" fill-rule="nonzero"/></g><path fill="#ffffff" d="M 209.9375 86.648438 C 209.9375 89.429688 207.691406 91.683594 204.921875 91.683594 C 202.152344 91.683594 199.90625 89.429688 199.90625 86.648438 C 199.90625 83.871094 202.152344 81.617188 204.921875 81.617188 C 207.691406 81.617188 209.9375 83.871094 209.9375 86.648438 " fill-opacity="1" fill-rule="nonzero"/><g clip-path="url(#ea2622dbf0)"><path fill="#ffffff" d="M 211.035156 86.648438 C 211.023438 88.949219 209.734375 91.054688 207.703125 92.113281 C 205.648438 93.1875 203.109375 92.933594 201.261719 91.5625 C 199.402344 90.1875 198.503906 87.789062 198.914062 85.519531 C 199.320312 83.289062 200.996094 81.441406 203.148438 80.777344 C 205 80.207031 207.035156 80.589844 208.585938 81.738281 C 210.125 82.878906 211.023438 84.738281 211.035156 86.648438 C 211.035156 86.808594 211.28125 86.808594 211.28125 86.648438 C 211.269531 84.449219 210.132812 82.402344 208.28125 81.230469 C 206.40625 80.042969 203.984375 79.972656 202.019531 80.972656 C 200.078125 81.957031 198.789062 83.9375 198.589844 86.09375 C 198.382812 88.296875 199.390625 90.457031 201.136719 91.777344 C 202.910156 93.121094 205.339844 93.390625 207.382812 92.535156 C 209.378906 91.703125 210.828125 89.84375 211.191406 87.710938 C 211.253906 87.359375 211.277344 87.003906 211.28125 86.648438 C 211.28125 86.488281 211.035156 86.488281 211.035156 86.648438 " fill-opacity="1" fill-rule="nonzero"/></g><path fill="#ffffff" d="M 162.804688 86.648438 C 162.804688 89.429688 160.558594 91.683594 157.789062 91.683594 C 155.015625 91.683594 152.773438 89.429688 152.773438 86.648438 C 152.773438 83.871094 155.015625 81.617188 157.789062 81.617188 C 160.558594 81.617188 162.804688 83.871094 162.804688 86.648438 " fill-opacity="1" fill-rule="nonzero"/><g clip-path="url(#9f43433b9d)"><path fill="#ffffff" d="M 163.898438 86.648438 C 163.886719 88.949219 162.597656 91.054688 160.566406 92.113281 C 158.511719 93.1875 155.976562 92.933594 154.125 91.5625 C 152.265625 90.1875 151.367188 87.789062 151.777344 85.519531 C 152.183594 83.289062 153.863281 81.441406 156.015625 80.777344 C 157.863281 80.207031 159.898438 80.589844 161.449219 81.738281 C 162.992188 82.878906 163.886719 84.738281 163.898438 86.648438 C 163.898438 86.808594 164.148438 86.808594 164.144531 86.648438 C 164.132812 84.449219 163 82.402344 161.144531 81.230469 C 159.269531 80.042969 156.847656 79.972656 154.882812 80.972656 C 152.945312 81.957031 151.652344 83.9375 151.453125 86.09375 C 151.25 88.296875 152.253906 90.457031 154 91.777344 C 155.773438 93.121094 158.207031 93.390625 160.246094 92.535156 C 162.242188 91.703125 163.695312 89.84375 164.058594 87.710938 C 164.117188 87.359375 164.144531 87.003906 164.144531 86.648438 C 164.148438 86.488281 163.898438 86.488281 163.898438 86.648438 " fill-opacity="1" fill-rule="nonzero"/></g><path fill="#ffffff" d="M 178.613281 156.574219 C 178.613281 159.355469 176.367188 161.605469 173.597656 161.605469 C 170.828125 161.605469 168.582031 159.355469 168.582031 156.574219 C 168.582031 153.792969 170.828125 151.539062 173.597656 151.539062 C 176.367188 151.539062 178.613281 153.792969 178.613281 156.574219 " fill-opacity="1" fill-rule="nonzero"/><g clip-path="url(#9ff0e8c53e)"><path fill="#cccbc9" d="M 179.707031 156.574219 C 179.695312 158.871094 178.40625 160.980469 176.378906 162.039062 C 174.324219 163.109375 171.785156 162.855469 169.9375 161.484375 C 168.074219 160.109375 167.175781 157.714844 167.589844 155.445312 C 167.992188 153.210938 169.671875 151.367188 171.824219 150.699219 C 173.671875 150.128906 175.710938 150.511719 177.257812 151.660156 C 178.800781 152.800781 179.699219 154.660156 179.707031 156.574219 C 179.710938 156.734375 179.957031 156.734375 179.957031 156.574219 C 179.945312 154.371094 178.808594 152.328125 176.953125 151.152344 C 175.082031 149.964844 172.660156 149.894531 170.691406 150.894531 C 168.753906 151.878906 167.464844 153.859375 167.261719 156.019531 C 167.058594 158.21875 168.066406 160.378906 169.8125 161.699219 C 171.585938 163.042969 174.015625 163.3125 176.058594 162.460938 C 178.050781 161.625 179.503906 159.769531 179.867188 157.636719 C 179.925781 157.285156 179.953125 156.929688 179.957031 156.574219 C 179.957031 156.414062 179.710938 156.414062 179.707031 156.574219 " fill-opacity="1" fill-rule="nonzero"/></g><path fill="#ffffff" d="M 194.144531 156.574219 C 194.144531 159.355469 191.898438 161.605469 189.128906 161.605469 C 186.355469 161.605469 184.113281 159.355469 184.113281 156.574219 C 184.113281 153.792969 186.355469 151.539062 189.128906 151.539062 C 191.898438 151.539062 194.144531 153.792969 194.144531 156.574219 " fill-opacity="1" fill-rule="nonzero"/><g clip-path="url(#66be41b067)"><path fill="#cccbc9" d="M 195.238281 156.574219 C 195.226562 158.871094 193.9375 160.980469 191.90625 162.039062 C 189.851562 163.109375 187.316406 162.855469 185.464844 161.484375 C 183.605469 160.109375 182.707031 157.714844 183.117188 155.445312 C 183.523438 153.210938 185.203125 151.367188 187.355469 150.699219 C 189.203125 150.128906 191.242188 150.511719 192.789062 151.660156 C 194.332031 152.800781 195.230469 154.660156 195.238281 156.574219 C 195.238281 156.734375 195.488281 156.734375 195.484375 156.574219 C 195.472656 154.371094 194.339844 152.328125 192.484375 151.152344 C 190.609375 149.964844 188.1875 149.894531 186.222656 150.894531 C 184.285156 151.878906 182.992188 153.859375 182.792969 156.019531 C 182.589844 158.21875 183.59375 160.378906 185.339844 161.699219 C 187.113281 163.042969 189.546875 163.3125 191.585938 162.460938 C 193.582031 161.625 195.035156 159.769531 195.398438 157.636719 C 195.457031 157.285156 195.484375 156.929688 195.484375 156.574219 C 195.488281 156.414062 195.238281 156.414062 195.238281 156.574219 " fill-opacity="1" fill-rule="nonzero"/></g><path fill="#ffffff" d="M 209.671875 156.574219 C 209.671875 159.355469 207.429688 161.605469 204.65625 161.605469 C 201.886719 161.605469 199.640625 159.355469 199.640625 156.574219 C 199.640625 153.792969 201.886719 151.539062 204.65625 151.539062 C 207.429688 151.539062 209.671875 153.792969 209.671875 156.574219 " fill-opacity="1" fill-rule="nonzero"/><g clip-path="url(#68fe832471)"><path fill="#cccbc9" d="M 210.769531 156.574219 C 210.757812 158.871094 209.46875 160.980469 207.4375 162.039062 C 205.382812 163.109375 202.84375 162.855469 200.996094 161.484375 C 199.136719 160.109375 198.238281 157.714844 198.648438 155.445312 C 199.054688 153.210938 200.734375 151.367188 202.882812 150.699219 C 204.734375 150.128906 206.769531 150.511719 208.320312 151.660156 C 209.859375 152.800781 210.757812 154.660156 210.769531 156.574219 C 210.769531 156.734375 211.015625 156.734375 211.015625 156.574219 C 211.003906 154.371094 209.871094 152.328125 208.015625 151.152344 C 206.140625 149.964844 203.71875 149.894531 201.753906 150.894531 C 199.8125 151.878906 198.523438 153.859375 198.324219 156.019531 C 198.117188 158.21875 199.125 160.378906 200.871094 161.699219 C 202.644531 163.042969 205.074219 163.3125 207.117188 162.460938 C 209.113281 161.625 210.5625 159.769531 210.925781 157.636719 C 210.988281 157.285156 211.015625 156.929688 211.015625 156.574219 C 211.015625 156.414062 210.769531 156.414062 210.769531 156.574219 " fill-opacity="1" fill-rule="nonzero"/></g><path fill="#ffffff" d="M 225.203125 156.574219 C 225.203125 159.355469 222.957031 161.605469 220.1875 161.605469 C 217.417969 161.605469 215.171875 159.355469 215.171875 156.574219 C 215.171875 153.792969 217.417969 151.539062 220.1875 151.539062 C 222.957031 151.539062 225.203125 153.792969 225.203125 156.574219 " fill-opacity="1" fill-rule="nonzero"/><g clip-path="url(#9d81000869)"><path fill="#cccbc9" d="M 226.300781 156.574219 C 226.289062 158.871094 225 160.980469 222.96875 162.039062 C 220.914062 163.109375 218.375 162.855469 216.527344 161.484375 C 214.667969 160.109375 213.769531 157.714844 214.179688 155.445312 C 214.585938 153.210938 216.261719 151.367188 218.414062 150.699219 C 220.261719 150.128906 222.300781 150.511719 223.851562 151.660156 C 225.390625 152.800781 226.289062 154.660156 226.300781 156.574219 C 226.300781 156.734375 226.546875 156.734375 226.546875 156.574219 C 226.535156 154.371094 225.398438 152.328125 223.546875 151.152344 C 221.671875 149.964844 219.25 149.894531 217.285156 150.894531 C 215.34375 151.878906 214.054688 153.859375 213.855469 156.019531 C 213.648438 158.21875 214.65625 160.378906 216.402344 161.699219 C 218.175781 163.042969 220.605469 163.3125 222.648438 162.460938 C 224.644531 161.625 226.09375 159.769531 226.457031 157.636719 C 226.519531 157.285156 226.542969 156.929688 226.546875 156.574219 C 226.546875 156.414062 226.300781 156.414062 226.300781 156.574219 " fill-opacity="1" fill-rule="nonzero"/></g><g clip-path="url(#60457834ee)"><path fill="#00276c" d="M 149.421875 74.675781 L 135.960938 74.675781 L 135.960938 178.84375 L 240.210938 178.84375 L 240.210938 165.378906 L 149.421875 165.378906 Z M 149.421875 74.675781 " fill-opacity="1" fill-rule="nonzero"/></g><g fill="#00276c" fill-opacity="1"><g transform="translate(80.243234, 231.785097)"><g><path d="M 19.28125 -2.859375 C 19.820312 -1.453125 20.601562 -0.726562 21.625 -0.6875 L 21.625 0 C 20.71875 -0.0703125 19.503906 -0.109375 17.984375 -0.109375 C 16.035156 -0.109375 14.585938 -0.0703125 13.640625 0 L 13.640625 -0.6875 C 14.492188 -0.726562 15.109375 -0.832031 15.484375 -1 C 15.859375 -1.175781 16.046875 -1.488281 16.046875 -1.9375 C 16.046875 -2.320312 15.910156 -2.851562 15.640625 -3.53125 L 13.5625 -9.109375 L 5.34375 -9.109375 L 3.9375 -5.515625 C 3.488281 -4.285156 3.265625 -3.351562 3.265625 -2.71875 C 3.265625 -2.019531 3.503906 -1.507812 3.984375 -1.1875 C 4.472656 -0.875 5.21875 -0.707031 6.21875 -0.6875 L 6.21875 0 C 4.925781 -0.0703125 3.625 -0.109375 2.3125 -0.109375 C 1.289062 -0.109375 0.441406 -0.0703125 -0.234375 0 L -0.234375 -0.6875 C 0.898438 -0.957031 1.796875 -1.941406 2.453125 -3.640625 L 10.4375 -24.234375 L 10.984375 -24.234375 Z M 13.296875 -9.796875 L 9.484375 -19.953125 L 5.609375 -9.796875 Z M 13.296875 -9.796875 "/></g></g></g><g fill="#00276c" fill-opacity="1"><g transform="translate(101.660782, 231.785097)"><g><path d="M 10.09375 -23.390625 C 9.28125 -23.347656 8.6875 -23.257812 8.3125 -23.125 C 7.9375 -22.988281 7.679688 -22.726562 7.546875 -22.34375 C 7.410156 -21.957031 7.34375 -21.332031 7.34375 -20.46875 L 7.34375 -3.609375 C 7.34375 -2.742188 7.410156 -2.117188 7.546875 -1.734375 C 7.679688 -1.347656 7.9375 -1.09375 8.3125 -0.96875 C 8.6875 -0.84375 9.28125 -0.78125 10.09375 -0.78125 L 12.578125 -0.78125 C 13.984375 -0.78125 15.050781 -0.976562 15.78125 -1.375 C 16.519531 -1.769531 17.0625 -2.410156 17.40625 -3.296875 C 17.75 -4.179688 18 -5.460938 18.15625 -7.140625 L 18.9375 -7.140625 C 18.875 -6.441406 18.84375 -5.515625 18.84375 -4.359375 C 18.84375 -3.054688 18.921875 -1.601562 19.078125 0 C 17.535156 -0.0703125 14.9375 -0.109375 11.28125 -0.109375 C 6.9375 -0.109375 3.648438 -0.0703125 1.421875 0 L 1.421875 -0.6875 C 2.242188 -0.726562 2.84375 -0.816406 3.21875 -0.953125 C 3.59375 -1.085938 3.847656 -1.347656 3.984375 -1.734375 C 4.117188 -2.117188 4.1875 -2.742188 4.1875 -3.609375 L 4.1875 -20.46875 C 4.1875 -21.332031 4.117188 -21.957031 3.984375 -22.34375 C 3.847656 -22.726562 3.59375 -22.988281 3.21875 -23.125 C 2.84375 -23.257812 2.242188 -23.347656 1.421875 -23.390625 L 1.421875 -24.078125 C 2.378906 -24.003906 3.832031 -23.96875 5.78125 -23.96875 C 7.59375 -23.96875 9.03125 -24.003906 10.09375 -24.078125 Z M 10.09375 -23.390625 "/></g></g></g><g fill="#ffffff" fill-opacity="1"><g transform="translate(121.645575, 231.785097)"><g><path d="M 18.84375 -4.359375 C 18.84375 -3.054688 18.921875 -1.601562 19.078125 0 C 17.535156 -0.0703125 14.9375 -0.109375 11.28125 -0.109375 C 6.9375 -0.109375 3.648438 -0.0703125 1.421875 0 L 1.421875 -0.6875 C 2.242188 -0.726562 2.84375 -0.816406 3.21875 -0.953125 C 3.59375 -1.085938 3.847656 -1.347656 3.984375 -1.734375 C 4.117188 -2.117188 4.1875 -2.742188 4.1875 -3.609375 L 4.1875 -20.46875 C 4.1875 -21.332031 4.117188 -21.957031 3.984375 -22.34375 C 3.847656 -22.726562 3.59375 -22.988281 3.21875 -23.125 C 2.84375 -23.257812 2.242188 -23.347656 1.421875 -23.390625 L 1.421875 -24.078125 C 3.648438 -24.003906 6.9375 -23.96875 11.28125 -23.96875 C 14.613281 -23.96875 16.984375 -24.003906 18.390625 -24.078125 C 18.234375 -22.578125 18.15625 -21.238281 18.15625 -20.0625 C 18.15625 -19.175781 18.191406 -18.472656 18.265625 -17.953125 L 17.46875 -17.953125 C 17.3125 -19.421875 17.109375 -20.507812 16.859375 -21.21875 C 16.609375 -21.9375 16.1875 -22.460938 15.59375 -22.796875 C 15.007812 -23.128906 14.117188 -23.296875 12.921875 -23.296875 L 10.09375 -23.296875 C 9.28125 -23.296875 8.6875 -23.234375 8.3125 -23.109375 C 7.9375 -22.984375 7.679688 -22.726562 7.546875 -22.34375 C 7.410156 -21.957031 7.34375 -21.332031 7.34375 -20.46875 L 7.34375 -12.4375 L 9.59375 -12.4375 C 10.382812 -12.4375 10.992188 -12.625 11.421875 -13 C 11.847656 -13.375 12.132812 -13.816406 12.28125 -14.328125 C 12.4375 -14.835938 12.554688 -15.476562 12.640625 -16.25 L 12.75 -16.9375 L 13.53125 -16.9375 C 13.46875 -15.976562 13.4375 -14.910156 13.4375 -13.734375 L 13.4375 -12.109375 C 13.4375 -10.953125 13.503906 -9.34375 13.640625 -7.28125 L 12.859375 -7.28125 C 12.828125 -7.4375 12.753906 -7.984375 12.640625 -8.921875 C 12.535156 -9.867188 12.226562 -10.578125 11.71875 -11.046875 C 11.207031 -11.523438 10.5 -11.765625 9.59375 -11.765625 L 7.34375 -11.765625 L 7.34375 -3.609375 C 7.34375 -2.742188 7.410156 -2.117188 7.546875 -1.734375 C 7.679688 -1.347656 7.9375 -1.09375 8.3125 -0.96875 C 8.6875 -0.84375 9.28125 -0.78125 10.09375 -0.78125 L 12.578125 -0.78125 C 13.984375 -0.78125 15.050781 -0.96875 15.78125 -1.34375 C 16.519531 -1.71875 17.0625 -2.316406 17.40625 -3.140625 C 17.75 -3.972656 18 -5.191406 18.15625 -6.796875 L 18.9375 -6.796875 C 18.875 -6.179688 18.84375 -5.367188 18.84375 -4.359375 Z M 18.84375 -4.359375 "/></g></g></g><g fill="#00276c" fill-opacity="1"><g transform="translate(142.34089, 231.785097)"><g><path d="M 8.703125 -24.453125 C 9.703125 -24.453125 10.488281 -24.34375 11.0625 -24.125 C 11.644531 -23.90625 12.242188 -23.59375 12.859375 -23.1875 C 13.347656 -22.875 13.734375 -22.71875 14.015625 -22.71875 C 14.210938 -22.71875 14.367188 -22.832031 14.484375 -23.0625 C 14.597656 -23.300781 14.6875 -23.679688 14.75 -24.203125 L 15.53125 -24.203125 C 15.425781 -22.890625 15.375 -20.578125 15.375 -17.265625 L 14.59375 -17.265625 C 14.445312 -19.109375 13.914062 -20.65625 13 -21.90625 C 12.082031 -23.164062 10.753906 -23.796875 9.015625 -23.796875 C 7.785156 -23.796875 6.785156 -23.425781 6.015625 -22.6875 C 5.242188 -21.957031 4.859375 -21.015625 4.859375 -19.859375 C 4.859375 -18.992188 5.054688 -18.242188 5.453125 -17.609375 C 5.847656 -16.972656 6.351562 -16.425781 6.96875 -15.96875 C 7.582031 -15.519531 8.457031 -14.945312 9.59375 -14.25 L 10.578125 -13.640625 C 12.003906 -12.753906 13.128906 -11.972656 13.953125 -11.296875 C 14.785156 -10.628906 15.445312 -9.863281 15.9375 -9 C 16.4375 -8.144531 16.6875 -7.140625 16.6875 -5.984375 C 16.6875 -3.921875 16.003906 -2.328125 14.640625 -1.203125 C 13.285156 -0.0859375 11.566406 0.46875 9.484375 0.46875 C 8.398438 0.46875 7.507812 0.351562 6.8125 0.125 C 6.125 -0.09375 5.460938 -0.394531 4.828125 -0.78125 C 4.328125 -1.101562 3.941406 -1.265625 3.671875 -1.265625 C 3.460938 -1.265625 3.300781 -1.144531 3.1875 -0.90625 C 3.082031 -0.664062 2.992188 -0.285156 2.921875 0.234375 L 2.140625 0.234375 C 2.234375 -1.003906 2.28125 -3.722656 2.28125 -7.921875 L 3.0625 -7.921875 C 3.21875 -5.628906 3.78125 -3.769531 4.75 -2.34375 C 5.726562 -0.914062 7.226562 -0.203125 9.25 -0.203125 C 10.46875 -0.203125 11.507812 -0.582031 12.375 -1.34375 C 13.238281 -2.101562 13.671875 -3.226562 13.671875 -4.71875 C 13.671875 -5.988281 13.242188 -7.066406 12.390625 -7.953125 C 11.546875 -8.835938 10.203125 -9.835938 8.359375 -10.953125 C 7.023438 -11.765625 5.941406 -12.488281 5.109375 -13.125 C 4.285156 -13.757812 3.613281 -14.523438 3.09375 -15.421875 C 2.570312 -16.316406 2.3125 -17.363281 2.3125 -18.5625 C 2.3125 -20.46875 2.921875 -21.925781 4.140625 -22.9375 C 5.367188 -23.945312 6.890625 -24.453125 8.703125 -24.453125 Z M 8.703125 -24.453125 "/></g></g></g><g fill="#00276c" fill-opacity="1"><g transform="translate(160.698791, 231.785097)"><g><path d="M 8.703125 -24.453125 C 9.703125 -24.453125 10.488281 -24.34375 11.0625 -24.125 C 11.644531 -23.90625 12.242188 -23.59375 12.859375 -23.1875 C 13.347656 -22.875 13.734375 -22.71875 14.015625 -22.71875 C 14.210938 -22.71875 14.367188 -22.832031 14.484375 -23.0625 C 14.597656 -23.300781 14.6875 -23.679688 14.75 -24.203125 L 15.53125 -24.203125 C 15.425781 -22.890625 15.375 -20.578125 15.375 -17.265625 L 14.59375 -17.265625 C 14.445312 -19.109375 13.914062 -20.65625 13 -21.90625 C 12.082031 -23.164062 10.753906 -23.796875 9.015625 -23.796875 C 7.785156 -23.796875 6.785156 -23.425781 6.015625 -22.6875 C 5.242188 -21.957031 4.859375 -21.015625 4.859375 -19.859375 C 4.859375 -18.992188 5.054688 -18.242188 5.453125 -17.609375 C 5.847656 -16.972656 6.351562 -16.425781 6.96875 -15.96875 C 7.582031 -15.519531 8.457031 -14.945312 9.59375 -14.25 L 10.578125 -13.640625 C 12.003906 -12.753906 13.128906 -11.972656 13.953125 -11.296875 C 14.785156 -10.628906 15.445312 -9.863281 15.9375 -9 C 16.4375 -8.144531 16.6875 -7.140625 16.6875 -5.984375 C 16.6875 -3.921875 16.003906 -2.328125 14.640625 -1.203125 C 13.285156 -0.0859375 11.566406 0.46875 9.484375 0.46875 C 8.398438 0.46875 7.507812 0.351562 6.8125 0.125 C 6.125 -0.09375 5.460938 -0.394531 4.828125 -0.78125 C 4.328125 -1.101562 3.941406 -1.265625 3.671875 -1.265625 C 3.460938 -1.265625 3.300781 -1.144531 3.1875 -0.90625 C 3.082031 -0.664062 2.992188 -0.285156 2.921875 0.234375 L 2.140625 0.234375 C 2.234375 -1.003906 2.28125 -3.722656 2.28125 -7.921875 L 3.0625 -7.921875 C 3.21875 -5.628906 3.78125 -3.769531 4.75 -2.34375 C 5.726562 -0.914062 7.226562 -0.203125 9.25 -0.203125 C 10.46875 -0.203125 11.507812 -0.582031 12.375 -1.34375 C 13.238281 -2.101562 13.671875 -3.226562 13.671875 -4.71875 C 13.671875 -5.988281 13.242188 -7.066406 12.390625 -7.953125 C 11.546875 -8.835938 10.203125 -9.835938 8.359375 -10.953125 C 7.023438 -11.765625 5.941406 -12.488281 5.109375 -13.125 C 4.285156 -13.757812 3.613281 -14.523438 3.09375 -15.421875 C 2.570312 -16.316406 2.3125 -17.363281 2.3125 -18.5625 C 2.3125 -20.46875 2.921875 -21.925781 4.140625 -22.9375 C 5.367188 -23.945312 6.890625 -24.453125 8.703125 -24.453125 Z M 8.703125 -24.453125 "/></g></g></g><g fill="#00276c" fill-opacity="1"><g transform="translate(179.056692, 231.785097)"><g><path d="M 19.28125 -2.859375 C 19.820312 -1.453125 20.601562 -0.726562 21.625 -0.6875 L 21.625 0 C 20.71875 -0.0703125 19.503906 -0.109375 17.984375 -0.109375 C 16.035156 -0.109375 14.585938 -0.0703125 13.640625 0 L 13.640625 -0.6875 C 14.492188 -0.726562 15.109375 -0.832031 15.484375 -1 C 15.859375 -1.175781 16.046875 -1.488281 16.046875 -1.9375 C 16.046875 -2.320312 15.910156 -2.851562 15.640625 -3.53125 L 13.5625 -9.109375 L 5.34375 -9.109375 L 3.9375 -5.515625 C 3.488281 -4.285156 3.265625 -3.351562 3.265625 -2.71875 C 3.265625 -2.019531 3.503906 -1.507812 3.984375 -1.1875 C 4.472656 -0.875 5.21875 -0.707031 6.21875 -0.6875 L 6.21875 0 C 4.925781 -0.0703125 3.625 -0.109375 2.3125 -0.109375 C 1.289062 -0.109375 0.441406 -0.0703125 -0.234375 0 L -0.234375 -0.6875 C 0.898438 -0.957031 1.796875 -1.941406 2.453125 -3.640625 L 10.4375 -24.234375 L 10.984375 -24.234375 Z M 13.296875 -9.796875 L 9.484375 -19.953125 L 5.609375 -9.796875 Z M 13.296875 -9.796875 "/></g></g></g><g fill="#00276c" fill-opacity="1"><g transform="translate(200.47424, 231.785097)"><g><path d="M 22.78125 -23.390625 C 21.988281 -23.347656 21.398438 -23.226562 21.015625 -23.03125 C 20.628906 -22.84375 20.367188 -22.523438 20.234375 -22.078125 C 20.097656 -21.640625 20.03125 -20.988281 20.03125 -20.125 L 20.03125 0.171875 L 19.25 0.171875 L 4.96875 -21.890625 L 4.96875 -3.9375 C 4.96875 -3.0625 5.039062 -2.40625 5.1875 -1.96875 C 5.332031 -1.539062 5.617188 -1.226562 6.046875 -1.03125 C 6.484375 -0.84375 7.15625 -0.726562 8.0625 -0.6875 L 8.0625 0 C 7.238281 -0.0703125 6.082031 -0.109375 4.59375 -0.109375 C 3.226562 -0.109375 2.171875 -0.0703125 1.421875 0 L 1.421875 -0.6875 C 2.222656 -0.726562 2.816406 -0.84375 3.203125 -1.03125 C 3.585938 -1.226562 3.847656 -1.546875 3.984375 -1.984375 C 4.117188 -2.429688 4.1875 -3.082031 4.1875 -3.9375 L 4.1875 -20.46875 C 4.1875 -21.332031 4.117188 -21.957031 3.984375 -22.34375 C 3.847656 -22.726562 3.59375 -22.988281 3.21875 -23.125 C 2.84375 -23.257812 2.242188 -23.347656 1.421875 -23.390625 L 1.421875 -24.078125 C 2.171875 -24.003906 3.226562 -23.96875 4.59375 -23.96875 C 5.613281 -23.96875 6.492188 -24.003906 7.234375 -24.078125 L 19.25 -5.578125 L 19.25 -20.125 C 19.25 -21.007812 19.171875 -21.664062 19.015625 -22.09375 C 18.867188 -22.53125 18.582031 -22.84375 18.15625 -23.03125 C 17.726562 -23.226562 17.0625 -23.347656 16.15625 -23.390625 L 16.15625 -24.078125 C 16.96875 -24.003906 18.125 -23.96875 19.625 -23.96875 C 20.976562 -23.96875 22.03125 -24.003906 22.78125 -24.078125 Z M 22.78125 -23.390625 "/></g></g></g><g fill="#00276c" fill-opacity="1"><g transform="translate(224.475485, 231.785097)"><g><path d="M 10.703125 -24.078125 C 14.722656 -24.078125 17.726562 -23.070312 19.71875 -21.0625 C 21.71875 -19.050781 22.71875 -16.132812 22.71875 -12.3125 C 22.71875 -9.84375 22.226562 -7.675781 21.25 -5.8125 C 20.269531 -3.957031 18.859375 -2.523438 17.015625 -1.515625 C 15.171875 -0.503906 12.96875 0 10.40625 0 L 8.4375 -0.03125 C 7.164062 -0.0820312 6.234375 -0.109375 5.640625 -0.109375 C 3.785156 -0.109375 2.378906 -0.0703125 1.421875 0 L 1.421875 -0.6875 C 2.242188 -0.726562 2.84375 -0.816406 3.21875 -0.953125 C 3.59375 -1.085938 3.847656 -1.347656 3.984375 -1.734375 C 4.117188 -2.117188 4.1875 -2.742188 4.1875 -3.609375 L 4.1875 -20.46875 C 4.1875 -21.332031 4.117188 -21.957031 3.984375 -22.34375 C 3.847656 -22.726562 3.59375 -22.988281 3.21875 -23.125 C 2.84375 -23.257812 2.242188 -23.347656 1.421875 -23.390625 L 1.421875 -24.078125 C 2.222656 -24.003906 3.320312 -23.96875 4.71875 -23.96875 L 7.609375 -24 C 9.148438 -24.050781 10.179688 -24.078125 10.703125 -24.078125 Z M 9.859375 -23.453125 C 9.160156 -23.453125 8.632812 -23.375 8.28125 -23.21875 C 7.925781 -23.0625 7.679688 -22.78125 7.546875 -22.375 C 7.410156 -21.96875 7.34375 -21.351562 7.34375 -20.53125 L 7.34375 -3.53125 C 7.34375 -2.71875 7.410156 -2.109375 7.546875 -1.703125 C 7.679688 -1.296875 7.925781 -1.007812 8.28125 -0.84375 C 8.632812 -0.6875 9.171875 -0.609375 9.890625 -0.609375 C 12.296875 -0.609375 14.1875 -1.046875 15.5625 -1.921875 C 16.945312 -2.796875 17.914062 -4.070312 18.46875 -5.75 C 19.03125 -7.425781 19.3125 -9.566406 19.3125 -12.171875 C 19.3125 -14.773438 19.003906 -16.898438 18.390625 -18.546875 C 17.773438 -20.191406 16.78125 -21.421875 15.40625 -22.234375 C 14.039062 -23.046875 12.191406 -23.453125 9.859375 -23.453125 Z M 9.859375 -23.453125 "/></g></g></g><g fill="#00276c" fill-opacity="1"><g transform="translate(249.054669, 231.785097)"><g><path d="M 22.4375 -1.703125 C 21.914062 -0.929688 21.394531 -0.375 20.875 -0.03125 C 20.351562 0.300781 19.660156 0.46875 18.796875 0.46875 C 17.867188 0.46875 17.101562 0.195312 16.5 -0.34375 C 15.90625 -0.882812 15.457031 -1.835938 15.15625 -3.203125 L 14.421875 -6.59375 C 14.148438 -7.769531 13.894531 -8.675781 13.65625 -9.3125 C 13.414062 -9.945312 13.054688 -10.457031 12.578125 -10.84375 C 12.097656 -11.226562 11.429688 -11.421875 10.578125 -11.421875 L 7.34375 -11.421875 L 7.34375 -3.609375 C 7.34375 -2.742188 7.410156 -2.117188 7.546875 -1.734375 C 7.679688 -1.347656 7.9375 -1.085938 8.3125 -0.953125 C 8.6875 -0.816406 9.28125 -0.726562 10.09375 -0.6875 L 10.09375 0 C 9.050781 -0.0703125 7.613281 -0.109375 5.78125 -0.109375 C 3.832031 -0.109375 2.378906 -0.0703125 1.421875 0 L 1.421875 -0.6875 C 2.242188 -0.726562 2.84375 -0.816406 3.21875 -0.953125 C 3.59375 -1.085938 3.847656 -1.347656 3.984375 -1.734375 C 4.117188 -2.117188 4.1875 -2.742188 4.1875 -3.609375 L 4.1875 -20.46875 C 4.1875 -21.332031 4.117188 -21.957031 3.984375 -22.34375 C 3.847656 -22.726562 3.59375 -22.988281 3.21875 -23.125 C 2.84375 -23.257812 2.242188 -23.347656 1.421875 -23.390625 L 1.421875 -24.078125 C 2.378906 -24.003906 3.765625 -23.96875 5.578125 -23.96875 L 9.25 -24 C 9.675781 -24.019531 10.160156 -24.03125 10.703125 -24.03125 C 13.335938 -24.03125 15.363281 -23.476562 16.78125 -22.375 C 18.195312 -21.28125 18.90625 -19.863281 18.90625 -18.125 C 18.90625 -17.238281 18.691406 -16.347656 18.265625 -15.453125 C 17.847656 -14.554688 17.144531 -13.75 16.15625 -13.03125 C 15.175781 -12.320312 13.894531 -11.84375 12.3125 -11.59375 L 12.71875 -11.53125 C 14.207031 -11.28125 15.289062 -10.828125 15.96875 -10.171875 C 16.65625 -9.515625 17.15625 -8.46875 17.46875 -7.03125 L 18.328125 -3.5625 C 18.554688 -2.519531 18.789062 -1.796875 19.03125 -1.390625 C 19.28125 -0.984375 19.625 -0.78125 20.0625 -0.78125 C 20.445312 -0.78125 20.769531 -0.878906 21.03125 -1.078125 C 21.289062 -1.285156 21.59375 -1.617188 21.9375 -2.078125 Z M 9.859375 -23.390625 C 9.160156 -23.390625 8.632812 -23.3125 8.28125 -23.15625 C 7.925781 -23 7.679688 -22.710938 7.546875 -22.296875 C 7.410156 -21.890625 7.34375 -21.28125 7.34375 -20.46875 L 7.34375 -12.109375 L 9.625 -12.109375 C 11.863281 -12.109375 13.398438 -12.601562 14.234375 -13.59375 C 15.078125 -14.59375 15.5 -15.976562 15.5 -17.75 C 15.5 -19.601562 15.054688 -21.003906 14.171875 -21.953125 C 13.296875 -22.910156 11.859375 -23.390625 9.859375 -23.390625 Z M 9.859375 -23.390625 "/></g></g></g><g fill="#00276c" fill-opacity="1"><g transform="translate(271.084144, 231.785097)"><g><path d="M 12.609375 -24.546875 C 14.765625 -24.546875 16.648438 -24.054688 18.265625 -23.078125 C 19.890625 -22.109375 21.148438 -20.695312 22.046875 -18.84375 C 22.941406 -17 23.390625 -14.796875 23.390625 -12.234375 C 23.390625 -9.742188 22.929688 -7.535156 22.015625 -5.609375 C 21.097656 -3.679688 19.816406 -2.1875 18.171875 -1.125 C 16.523438 -0.0625 14.660156 0.46875 12.578125 0.46875 C 10.421875 0.46875 8.53125 -0.015625 6.90625 -0.984375 C 5.289062 -1.960938 4.035156 -3.375 3.140625 -5.21875 C 2.242188 -7.0625 1.796875 -9.265625 1.796875 -11.828125 C 1.796875 -14.328125 2.253906 -16.539062 3.171875 -18.46875 C 4.097656 -20.394531 5.378906 -21.890625 7.015625 -22.953125 C 8.660156 -24.015625 10.523438 -24.546875 12.609375 -24.546875 Z M 12.484375 -23.9375 C 11.023438 -23.9375 9.742188 -23.429688 8.640625 -22.421875 C 7.546875 -21.410156 6.695312 -20 6.09375 -18.1875 C 5.5 -16.375 5.203125 -14.300781 5.203125 -11.96875 C 5.203125 -9.613281 5.535156 -7.539062 6.203125 -5.75 C 6.867188 -3.957031 7.769531 -2.570312 8.90625 -1.59375 C 10.039062 -0.625 11.3125 -0.140625 12.71875 -0.140625 C 14.164062 -0.140625 15.4375 -0.640625 16.53125 -1.640625 C 17.632812 -2.648438 18.484375 -4.0625 19.078125 -5.875 C 19.679688 -7.695312 19.984375 -9.773438 19.984375 -12.109375 C 19.984375 -14.460938 19.648438 -16.535156 18.984375 -18.328125 C 18.316406 -20.117188 17.414062 -21.5 16.28125 -22.46875 C 15.15625 -23.445312 13.890625 -23.9375 12.484375 -23.9375 Z M 12.484375 -23.9375 "/></g></g></g><g fill="#ffffff" fill-opacity="1"><g transform="translate(120.07007, 252.780379)"><g><path d="M 1.984375 -0.84375 L 3.53125 -0.84375 C 4.570312 -0.84375 5.367188 -1.128906 5.921875 -1.703125 C 6.472656 -2.273438 6.75 -3.078125 6.75 -4.109375 C 6.75 -5.140625 6.472656 -5.941406 5.921875 -6.515625 C 5.367188 -7.097656 4.570312 -7.390625 3.53125 -7.390625 L 1.984375 -7.390625 Z M 3.53125 -8.3125 C 4.875 -8.3125 5.929688 -7.9375 6.703125 -7.1875 C 7.484375 -6.4375 7.875 -5.410156 7.875 -4.109375 C 7.875 -2.816406 7.484375 -1.804688 6.703125 -1.078125 C 5.929688 -0.359375 4.875 0 3.53125 0 L 0.90625 0 L 0.90625 -8.3125 Z M 3.53125 -8.3125 "/></g></g></g><g fill="#00276c" fill-opacity="1"><g transform="translate(132.890385, 252.780379)"><g><path d="M 6.640625 0 L 5.984375 -1.828125 L 2.296875 -1.828125 L 1.640625 0 L 0.53125 0 L 3.546875 -8.3125 L 4.75 -8.3125 L 7.765625 0 Z M 2.609375 -2.6875 L 5.671875 -2.6875 L 4.140625 -6.984375 Z M 2.609375 -2.6875 "/></g></g></g><g fill="#ffffff" fill-opacity="1"><g transform="translate(145.6521, 252.780379)"><g><path d="M 0.53125 -7.4375 L 0.53125 -8.3125 L 6.015625 -8.3125 L 6.015625 -7.4375 L 3.8125 -7.4375 L 3.8125 0 L 2.71875 0 L 2.71875 -7.4375 Z M 0.53125 -7.4375 "/></g></g></g><g fill="#00276c" fill-opacity="1"><g transform="translate(156.679446, 252.780379)"><g><path d="M 6.640625 0 L 5.984375 -1.828125 L 2.296875 -1.828125 L 1.640625 0 L 0.53125 0 L 3.546875 -8.3125 L 4.75 -8.3125 L 7.765625 0 Z M 2.609375 -2.6875 L 5.671875 -2.6875 L 4.140625 -6.984375 Z M 2.609375 -2.6875 "/></g></g></g><g fill="#00276c" fill-opacity="1"><g transform="translate(169.44754, 252.780379)"><g/></g></g><g fill="#00276c" fill-opacity="1"><g transform="translate(177.523625, 252.780379)"><g><path d="M 6.640625 0 L 5.984375 -1.828125 L 2.296875 -1.828125 L 1.640625 0 L 0.53125 0 L 3.546875 -8.3125 L 4.75 -8.3125 L 7.765625 0 Z M 2.609375 -2.6875 L 5.671875 -2.6875 L 4.140625 -6.984375 Z M 2.609375 -2.6875 "/></g></g></g><g fill="#ffffff" fill-opacity="1"><g transform="translate(190.288819, 252.780379)"><g><path d="M 6.390625 -8.3125 L 7.46875 -8.3125 L 7.46875 0 L 6.390625 0 L 1.984375 -6.59375 L 1.984375 0 L 0.90625 0 L 0.90625 -8.3125 L 1.984375 -8.3125 L 6.390625 -1.71875 Z M 6.390625 -8.3125 "/></g></g></g><g fill="#00276c" fill-opacity="1"><g transform="translate(203.132568, 252.780379)"><g><path d="M 6.640625 0 L 5.984375 -1.828125 L 2.296875 -1.828125 L 1.640625 0 L 0.53125 0 L 3.546875 -8.3125 L 4.75 -8.3125 L 7.765625 0 Z M 2.609375 -2.6875 L 5.671875 -2.6875 L 4.140625 -6.984375 Z M 2.609375 -2.6875 "/></g></g></g><g fill="#ffffff" fill-opacity="1"><g transform="translate(215.894282, 252.780379)"><g><path d="M 0.90625 -8.3125 L 1.984375 -8.3125 L 1.984375 -0.84375 L 4.90625 -0.84375 L 4.90625 0 L 0.90625 0 Z M 0.90625 -8.3125 "/></g></g></g><g fill="#ffffff" fill-opacity="1"><g transform="translate(225.518375, 252.780379)"><g><path d="M 3.984375 0 L 2.890625 0 L 2.890625 -3.140625 L 0.1875 -8.3125 L 1.375 -8.3125 L 3.4375 -4.15625 L 5.46875 -8.3125 L 6.6875 -8.3125 L 3.984375 -3.140625 Z M 3.984375 0 "/></g></g></g><g fill="#ffffff" fill-opacity="1"><g transform="translate(236.858475, 252.780379)"><g><path d="M 1.78125 -6.09375 C 1.78125 -5.789062 1.863281 -5.539062 2.03125 -5.34375 C 2.207031 -5.144531 2.425781 -4.992188 2.6875 -4.890625 C 2.945312 -4.796875 3.238281 -4.710938 3.5625 -4.640625 C 3.894531 -4.566406 4.222656 -4.484375 4.546875 -4.390625 C 4.867188 -4.304688 5.160156 -4.191406 5.421875 -4.046875 C 5.679688 -3.898438 5.894531 -3.679688 6.0625 -3.390625 C 6.238281 -3.109375 6.328125 -2.753906 6.328125 -2.328125 C 6.328125 -1.679688 6.078125 -1.117188 5.578125 -0.640625 C 5.085938 -0.160156 4.414062 0.078125 3.5625 0.078125 C 2.71875 0.078125 2.03125 -0.113281 1.5 -0.5 C 0.976562 -0.882812 0.71875 -1.410156 0.71875 -2.078125 L 1.890625 -2.078125 C 1.921875 -1.703125 2.066406 -1.394531 2.328125 -1.15625 C 2.597656 -0.925781 2.992188 -0.8125 3.515625 -0.8125 C 4.046875 -0.8125 4.46875 -0.945312 4.78125 -1.21875 C 5.09375 -1.488281 5.25 -1.804688 5.25 -2.171875 C 5.25 -2.535156 5.164062 -2.816406 5 -3.015625 C 4.832031 -3.210938 4.613281 -3.359375 4.34375 -3.453125 C 4.082031 -3.546875 3.789062 -3.625 3.46875 -3.6875 C 3.144531 -3.757812 2.820312 -3.84375 2.5 -3.9375 C 2.175781 -4.039062 1.878906 -4.164062 1.609375 -4.3125 C 1.347656 -4.457031 1.132812 -4.675781 0.96875 -4.96875 C 0.800781 -5.257812 0.71875 -5.625 0.71875 -6.0625 C 0.71875 -6.757812 0.96875 -7.320312 1.46875 -7.75 C 1.96875 -8.1875 2.617188 -8.40625 3.421875 -8.40625 C 4.222656 -8.40625 4.863281 -8.21875 5.34375 -7.84375 C 5.820312 -7.46875 6.097656 -6.953125 6.171875 -6.296875 L 4.953125 -6.296875 C 4.921875 -6.628906 4.765625 -6.910156 4.484375 -7.140625 C 4.210938 -7.367188 3.84375 -7.484375 3.375 -7.484375 C 2.90625 -7.484375 2.519531 -7.363281 2.21875 -7.125 C 1.925781 -6.894531 1.78125 -6.550781 1.78125 -6.09375 Z M 1.78125 -6.09375 "/></g></g></g><g fill="#ffffff" fill-opacity="1"><g transform="translate(248.378569, 252.780379)"><g><path d="M 0.53125 -7.4375 L 0.53125 -8.3125 L 6.015625 -8.3125 L 6.015625 -7.4375 L 3.8125 -7.4375 L 3.8125 0 L 2.71875 0 L 2.71875 -7.4375 Z M 0.53125 -7.4375 "/></g></g></g></svg>